<svg width="314" height="54" viewBox="0 0 314 54" fill="none" xmlns="http://www.w3.org/2000/svg">
<path d="M38.4019 36.1019C38.4019 36.2748 38.3442 36.5917 38.229 37.0526C37.1727 40.913 34.9256 43.8226 31.4878 45.7816C28.0692 47.7214 24.4681 48.6913 20.6846 48.6913C14.6156 48.6913 9.88135 46.8283 6.48193 43.1024C3.10173 39.3573 1.41162 34.5175 1.41162 28.5829C1.41162 22.5523 3.14974 17.6548 6.62598 13.8905C10.1214 10.107 14.9421 8.21521 21.0879 8.21521C24.8522 8.21521 28.4629 9.22351 31.9199 11.2401C35.3962 13.2375 37.4896 16.1856 38.2002 20.0844C38.277 20.3916 38.3154 20.6317 38.3154 20.8046C38.3154 21.8801 37.3743 22.4178 35.4922 22.4178C33.6292 22.4178 32.6305 21.9185 32.4961 20.9198C31.651 14.6011 27.8483 11.4418 21.0879 11.4418C16.4017 11.4418 12.9159 13.2471 10.6304 16.8578C8.3641 20.4493 7.23096 24.3384 7.23096 28.5253C7.23096 32.6353 8.31608 36.4956 10.4863 40.1063C12.6566 43.6978 16.0752 45.4935 20.7422 45.4935C27.5218 45.4935 31.459 42.315 32.5537 35.9579C32.7074 34.9976 33.6868 34.5175 35.4922 34.5175C37.432 34.5175 38.4019 35.0456 38.4019 36.1019ZM88.8457 48.6913C86.8867 48.6913 85.9072 48.1535 85.9072 47.078V10.5199C85.9072 9.44438 86.8867 8.90662 88.8457 8.90662H106.966C110.078 8.90662 112.92 9.8669 115.494 11.7875C118.086 13.708 119.383 16.3104 119.383 19.5946C119.383 22.8788 118.086 25.4908 115.494 27.4305C112.92 29.3511 110.078 30.3114 106.966 30.3114H91.7554V47.078C91.7554 48.1535 90.7855 48.6913 88.8457 48.6913ZM106.966 27.0848C108.868 27.0848 110.433 26.2782 111.662 24.6649C112.91 23.0324 113.535 21.3423 113.535 19.5946C113.535 17.8469 112.91 16.1664 111.662 14.5531C110.433 12.9398 108.868 12.1332 106.966 12.1332H91.7554V27.0848H106.966ZM126.643 48.6913C124.684 48.6913 123.704 48.1535 123.704 47.078V10.5199C123.704 9.44438 124.684 8.90662 126.643 8.90662H144.763C147.875 8.90662 150.717 9.8669 153.291 11.7875C155.883 13.708 157.18 16.3104 157.18 19.5946C157.18 22.8788 155.883 25.4908 153.291 27.4305C150.717 29.3511 147.875 30.3114 144.763 30.3114H129.552V47.078C129.552 48.1535 128.582 48.6913 126.643 48.6913ZM144.763 27.0848C146.665 27.0848 148.23 26.2782 149.459 24.6649C150.707 23.0324 151.332 21.3423 151.332 19.5946C151.332 17.8469 150.707 16.1664 149.459 14.5531C148.23 12.9398 146.665 12.1332 144.763 12.1332H129.552V27.0848H144.763ZM195.524 48.6913C193.776 48.6913 192.72 48.2784 192.355 47.4525L187.083 35.4969H169.135L163.834 47.7982C163.585 48.3936 162.865 48.6913 161.674 48.6913C160.118 48.6913 159.34 48.3072 159.34 47.5389C159.34 47.4813 159.36 47.3949 159.398 47.2797L175.761 9.39636C176.088 8.60893 177.182 8.21521 179.045 8.21521C180.678 8.21521 181.677 8.61853 182.042 9.42517L198.52 46.7611C198.578 46.8955 198.606 47.0204 198.606 47.1356C198.606 48.1727 197.579 48.6913 195.524 48.6913ZM185.643 32.2704L178.008 14.9564L170.547 32.2704H185.643ZM233.292 48.6913C231.717 48.6913 230.651 48.3264 230.094 47.5966L206.788 16.2528V47.4813C206.788 48.288 206.029 48.6913 204.512 48.6913C202.995 48.6913 202.236 48.288 202.236 47.4813V10.1166C202.236 8.849 203.389 8.21521 205.693 8.21521C207.249 8.21521 208.305 8.58012 208.862 9.30994L232.197 40.6537V9.45398C232.197 8.62813 232.956 8.21521 234.473 8.21521C235.99 8.21521 236.749 8.62813 236.749 9.45398V46.8475C236.749 48.0767 235.597 48.6913 233.292 48.6913ZM271.521 47.9999H245.651C243.557 47.9999 242.511 47.4237 242.511 46.2714V10.6351C242.511 9.48279 243.557 8.90662 245.651 8.90662H271.521C273.48 8.90662 274.459 9.44438 274.459 10.5199C274.459 11.5954 273.48 12.1332 271.521 12.1332H248.359V26.8256H267.862C269.802 26.8256 270.772 27.3633 270.772 28.4388C270.772 29.5144 269.802 30.0521 267.862 30.0521H248.359V44.7733H271.521C273.48 44.7733 274.459 45.3111 274.459 46.3866C274.459 47.4621 273.48 47.9999 271.521 47.9999ZM294.856 48.3456C292.897 48.3456 291.917 47.8078 291.917 46.7323V11.7875H280.25C278.31 11.7875 277.34 11.2497 277.34 10.1742C277.34 9.09867 278.31 8.56091 280.25 8.56091H309.433C311.373 8.56091 312.343 9.09867 312.343 10.1742C312.343 11.2497 311.373 11.7875 309.433 11.7875H297.766V46.7323C297.766 47.8078 296.796 48.3456 294.856 48.3456Z" fill="white"/>
<path d="M78.4375 0L53.3338 28.1273H61.3456L45.5625 53.2006L71.8618 25.0696H63.4927L78.4375 0Z" fill="#FE9C76"/>
<path d="M62.0031 6.14014C50.9527 6.14014 42 15.2988 42 26.596C42 33.0263 44.8899 38.7581 49.4247 42.507L51.2605 39.5976C47.656 36.482 45.3604 31.8104 45.3604 26.5997C45.3604 17.1986 52.8062 9.57418 62.0031 9.57418C63.5524 9.57418 65.0486 9.79492 66.46 10.2038L68.9537 7.41026C66.7889 6.57799 64.4473 6.14014 62.0031 6.14014Z" fill="#FE9C76"/>
<path d="M74.8192 10.8839L73.0399 13.862C76.4817 16.9776 78.6465 21.537 78.6465 26.5995C78.6465 36.0078 71.1935 43.6249 62.0038 43.6249C60.794 43.6249 59.602 43.4947 58.463 43.2377L55.8242 46.0603C57.7662 46.7188 59.8461 47.0662 62.0038 47.0662C73.047 47.0662 81.9997 37.9076 81.9997 26.6031C81.9997 20.2742 79.2053 14.6292 74.8192 10.8839Z" fill="#FE9C76"/>
</svg>
