<svg width="314" height="44" viewBox="0 0 314 44" fill="none" xmlns="http://www.w3.org/2000/svg">
<path d="M38.4019 31.1021C38.4019 31.2749 38.3442 31.5918 38.229 32.0527C37.1727 35.9131 34.9256 38.8228 31.4878 40.7817C28.0692 42.7215 24.4681 43.6914 20.6846 43.6914C14.6156 43.6914 9.88135 41.8285 6.48193 38.1025C3.10173 34.3574 1.41162 29.5176 1.41162 23.583C1.41162 17.5524 3.14974 12.6549 6.62598 8.89062C10.1214 5.1071 14.9421 3.21533 21.0879 3.21533C24.8522 3.21533 28.4629 4.22363 31.9199 6.24023C35.3962 8.23763 37.4896 11.1857 38.2002 15.0845C38.277 15.3918 38.3154 15.6318 38.3154 15.8047C38.3154 16.8802 37.3743 17.418 35.4922 17.418C33.6292 17.418 32.6305 16.9186 32.4961 15.9199C31.651 9.60124 27.8483 6.44189 21.0879 6.44189C16.4017 6.44189 12.9159 8.24723 10.6304 11.8579C8.3641 15.4494 7.23096 19.3385 7.23096 23.5254C7.23096 27.6354 8.31608 31.4958 10.4863 35.1064C12.6566 38.6979 16.0752 40.4937 20.7422 40.4937C27.5218 40.4937 31.459 37.3151 32.5537 30.958C32.7074 29.9977 33.6868 29.5176 35.4922 29.5176C37.432 29.5176 38.4019 30.0457 38.4019 31.1021ZM88.8457 43.6914C86.8867 43.6914 85.9072 43.1536 85.9072 42.0781V5.52002C85.9072 4.4445 86.8867 3.90674 88.8457 3.90674H106.966C110.078 3.90674 112.92 4.86702 115.494 6.7876C118.086 8.70817 119.383 11.3105 119.383 14.5947C119.383 17.8789 118.086 20.4909 115.494 22.4307C112.92 24.3512 110.078 25.3115 106.966 25.3115H91.7554V42.0781C91.7554 43.1536 90.7855 43.6914 88.8457 43.6914ZM106.966 22.085C108.868 22.085 110.433 21.2783 111.662 19.665C112.91 18.0326 113.535 16.3424 113.535 14.5947C113.535 12.847 112.91 11.1665 111.662 9.55322C110.433 7.93994 108.868 7.1333 106.966 7.1333H91.7554V22.085H106.966ZM126.643 43.6914C124.684 43.6914 123.704 43.1536 123.704 42.0781V5.52002C123.704 4.4445 124.684 3.90674 126.643 3.90674H144.763C147.875 3.90674 150.717 4.86702 153.291 6.7876C155.883 8.70817 157.18 11.3105 157.18 14.5947C157.18 17.8789 155.883 20.4909 153.291 22.4307C150.717 24.3512 147.875 25.3115 144.763 25.3115H129.552V42.0781C129.552 43.1536 128.582 43.6914 126.643 43.6914ZM144.763 22.085C146.665 22.085 148.23 21.2783 149.459 19.665C150.707 18.0326 151.332 16.3424 151.332 14.5947C151.332 12.847 150.707 11.1665 149.459 9.55322C148.23 7.93994 146.665 7.1333 144.763 7.1333H129.552V22.085H144.763ZM195.524 43.6914C193.776 43.6914 192.72 43.2785 192.355 42.4526L187.083 30.4971H169.135L163.834 42.7983C163.585 43.3937 162.865 43.6914 161.674 43.6914C160.118 43.6914 159.34 43.3073 159.34 42.5391C159.34 42.4814 159.36 42.395 159.398 42.2798L175.761 4.39648C176.088 3.60905 177.182 3.21533 179.045 3.21533C180.678 3.21533 181.677 3.61865 182.042 4.42529L198.52 41.7612C198.578 41.8957 198.606 42.0205 198.606 42.1357C198.606 43.1729 197.579 43.6914 195.524 43.6914ZM185.643 27.2705L178.008 9.95654L170.547 27.2705H185.643ZM233.292 43.6914C231.717 43.6914 230.651 43.3265 230.094 42.5967L206.788 11.2529V42.4814C206.788 43.2881 206.029 43.6914 204.512 43.6914C202.995 43.6914 202.236 43.2881 202.236 42.4814V5.1167C202.236 3.84912 203.389 3.21533 205.693 3.21533C207.249 3.21533 208.305 3.58024 208.862 4.31006L232.197 35.6538V4.4541C232.197 3.62826 232.956 3.21533 234.473 3.21533C235.99 3.21533 236.749 3.62826 236.749 4.4541V41.8477C236.749 43.0768 235.597 43.6914 233.292 43.6914ZM271.521 43H245.651C243.557 43 242.511 42.4238 242.511 41.2715V5.63525C242.511 4.48291 243.557 3.90674 245.651 3.90674H271.521C273.48 3.90674 274.459 4.4445 274.459 5.52002C274.459 6.59554 273.48 7.1333 271.521 7.1333H248.359V21.8257H267.862C269.802 21.8257 270.772 22.3634 270.772 23.439C270.772 24.5145 269.802 25.0522 267.862 25.0522H248.359V39.7734H271.521C273.48 39.7734 274.459 40.3112 274.459 41.3867C274.459 42.4622 273.48 43 271.521 43ZM294.856 43.3457C292.897 43.3457 291.917 42.8079 291.917 41.7324V6.7876H280.25C278.31 6.7876 277.34 6.24984 277.34 5.17432C277.34 4.0988 278.31 3.56104 280.25 3.56104H309.433C311.373 3.56104 312.343 4.0988 312.343 5.17432C312.343 6.24984 311.373 6.7876 309.433 6.7876H297.766V41.7324C297.766 42.8079 296.796 43.3457 294.856 43.3457Z" fill="#515151"/>
<path d="M75.8287 0L54.5888 23.263H61.3675L48.0137 44L70.2651 20.734H63.1841L75.8287 0Z" fill="#B6735A"/>
<path d="M61.9242 5.07825C52.5748 5.07825 45 12.653 45 21.9965C45 27.3147 47.4451 32.0553 51.2819 35.1558L52.8351 32.7496C49.7855 30.1728 47.8432 26.3091 47.8432 21.9995C47.8432 14.2242 54.143 7.9184 61.9242 7.9184C63.2351 7.9184 64.501 8.10096 65.6951 8.43915L67.8051 6.12872C65.9735 5.44037 63.9922 5.07825 61.9242 5.07825Z" fill="#B6735A"/>
<path d="M72.7676 9.00159L71.2622 11.4647C74.1742 14.0414 76.0058 17.8124 76.0058 21.9993C76.0058 29.7805 69.7 36.0803 61.9247 36.0803C60.9012 36.0803 59.8926 35.9726 58.9289 35.7601L56.6963 38.0945C58.3393 38.6392 60.0991 38.9265 61.9247 38.9265C71.2682 38.9265 78.8429 31.3517 78.8429 22.0023C78.8429 16.7679 76.4786 12.0991 72.7676 9.00159Z" fill="#B6735A"/>
</svg>
