<svg id="Layer_1" data-name="Layer 1" xmlns="http://www.w3.org/2000/svg" xmlns:xlink="http://www.w3.org/1999/xlink" viewBox="0 0 1419.66 313.56"><defs><style>.cls-1{fill:url(#linear-gradient);}.cls-2{fill:url(#linear-gradient-2);}.cls-3{fill:url(#linear-gradient-3);}.cls-4{fill:url(#linear-gradient-4);}.cls-5{fill:url(#linear-gradient-5);}.cls-6{fill:url(#linear-gradient-6);}.cls-7{fill:url(#linear-gradient-7);}.cls-8{fill:url(#linear-gradient-8);}.cls-9{fill:url(#linear-gradient-9);}.cls-10{fill:url(#linear-gradient-10);}</style><linearGradient id="linear-gradient" x1="7.81" y1="153.56" x2="222.97" y2="153.56" gradientUnits="userSpaceOnUse"><stop offset="0" stop-color="#b9775d"/><stop offset="0.3" stop-color="#e89077"/><stop offset="0.7" stop-color="#fdbda4"/><stop offset="1" stop-color="#b57359"/></linearGradient><linearGradient id="linear-gradient-2" x1="411.48" y1="160.11" x2="647.38" y2="160.11" xlink:href="#linear-gradient"/><linearGradient id="linear-gradient-3" x1="580.85" y1="160.11" x2="816.75" y2="160.11" xlink:href="#linear-gradient"/><linearGradient id="linear-gradient-4" x1="806.12" y1="135.73" x2="976.59" y2="135.73" xlink:href="#linear-gradient"/><linearGradient id="linear-gradient-5" x1="972.03" y1="135.73" x2="1143.43" y2="135.73" xlink:href="#linear-gradient"/><linearGradient id="linear-gradient-6" x1="1157.67" y1="135.75" x2="1310.07" y2="135.75" xlink:href="#linear-gradient"/><linearGradient id="linear-gradient-7" x1="1316.69" y1="116.2" x2="1411.85" y2="116.2" xlink:href="#linear-gradient"/><linearGradient id="linear-gradient-8" x1="240.7" y1="159.7" x2="422.69" y2="159.7" xlink:href="#linear-gradient"/><linearGradient id="linear-gradient-9" x1="130.61" y1="-27.41" x2="566.3" y2="391.79" xlink:href="#linear-gradient"/><linearGradient id="linear-gradient-10" x1="511.8" y1="305.51" x2="187.42" y2="33.32" xlink:href="#linear-gradient"/></defs><path class="cls-1" d="M223,36.44l-16.61,72.61h-6L199.8,90.8a69.92,69.92,0,0,0-4-17.64A36.66,36.66,0,0,0,187,59.72a41.41,41.41,0,0,0-15-8.92,59.28,59.28,0,0,0-20.2-3.28q-29.53,0-51.69,16.2Q71.8,84.44,55.81,122a160.89,160.89,0,0,0-13.13,63q0,32.63,19,52T111,256.32q23,0,40.92-10.25t33.33-31.59h7.59q-18,28.92-40.2,42.56T99.7,270.68q-27.48,0-48.61-11.49a77.49,77.49,0,0,1-32.2-32.3A93.92,93.92,0,0,1,7.81,182.07q0-36.51,19.69-71.17a144.49,144.49,0,0,1,54-54.56q34.24-19.9,69.12-19.9,16.2,0,36.51,7.8,9,3.27,12.92,3.28a14,14,0,0,0,6.87-1.64q3-1.65,9.95-9.44Z"/><path class="cls-2" d="M545.75,49,532,87.19Q553.62,66,570.54,57.51A75.78,75.78,0,0,1,604.91,49Q622.58,49,635,60.7t12.4,30.4q0,36.35-35.35,73.94t-82.48,37.59a78,78,0,0,1-17.43-1.75,75.52,75.52,0,0,1-16.94-6.47L480.7,237.13q-4.43,12.54-4.42,16.23a9,9,0,0,0,2.33,6.26c1.56,1.72,4,3.05,7.37,4s10.1,1.44,20.25,1.44l-1.72,6.16h-93l2-6.16q18.4-.61,24.79-5.24t13.5-25.78l50.08-144.8q4.43-13.77,4.42-17a8.57,8.57,0,0,0-3-7q-2.94-2.47-9.32-2.47A139,139,0,0,0,478,64V57.62ZM499.6,181.27q12.27,12.31,33.14,12.32a50.17,50.17,0,0,0,20.74-4.83,79.64,79.64,0,0,0,20.87-14.17,114.67,114.67,0,0,0,18.29-21.67,154.64,154.64,0,0,0,14.6-29.06,91,91,0,0,0,6.51-33.17q0-13.15-7.24-20.13a23.77,23.77,0,0,0-17.06-7q-21.36,0-42.1,20.44a125.83,125.83,0,0,0-30.57,48Z"/><path class="cls-3" d="M715.13,49l-13.75,38.2Q723,66,739.92,57.51A75.75,75.75,0,0,1,774.29,49Q792,49,804.36,60.7t12.39,30.4q0,36.35-35.35,73.94t-82.48,37.59a77.92,77.92,0,0,1-17.42-1.75,75.34,75.34,0,0,1-16.94-6.47l-14.49,42.72q-4.41,12.54-4.41,16.23a9,9,0,0,0,2.33,6.26c1.55,1.72,4,3.05,7.36,4s10.11,1.44,20.25,1.44l-1.71,6.16h-93l2-6.16q18.42-.61,24.8-5.24t13.5-25.78l50.08-144.8q4.41-13.77,4.41-17a8.6,8.6,0,0,0-2.94-7c-2-1.65-5.07-2.47-9.33-2.47a139,139,0,0,0-16,1.23V57.62ZM669,181.27q12.27,12.31,33.14,12.32a50.17,50.17,0,0,0,20.74-4.83,79.6,79.6,0,0,0,20.86-14.17A114.3,114.3,0,0,0,762,152.92a155.25,155.25,0,0,0,14.61-29.06,91.23,91.23,0,0,0,6.5-33.17q0-13.15-7.24-20.13a23.75,23.75,0,0,0-17.06-7q-21.36,0-42.1,20.44a125.81,125.81,0,0,0-30.56,48Z"/><path class="cls-4" d="M976.59,49,940.18,175.63,936,192.79a20.56,20.56,0,0,0-.46,3.94,8.36,8.36,0,0,0,1.85,5.34,4.66,4.66,0,0,0,3.71,1.62q2.32,0,6.27-3,7.18-5.34,19.48-22.27l6.26,4.41q-12.75,19.49-26.44,29.57t-25.28,10.09q-7.89,0-11.95-3.94t-4.05-11.6q0-9.28,4.17-24.12l3.94-14.15q-24.59,32-45,44.76-14.85,9-29,9-13.69,0-23.55-11.25t-9.85-31q0-29.7,17.74-62.74T869.2,64.76Q890.54,49,909.56,49q11.6,0,19.13,6T940.18,75l6.72-21.34ZM910,58.73q-11.82,0-25.28,11.37-19.25,15.77-34.09,47T835.8,173.54q0,12.53,6.38,20t14.73,7.42q20.18,0,44.07-30.15,32-39.9,32-81.88,0-15.76-6.15-23T910,58.73Z"/><path class="cls-5" d="M1052.05,49l-24.81,85.12q34.79-52.19,53.45-68.65T1116.53,49a20.35,20.35,0,0,1,15.3,6.26q6,6.27,6,16,0,11.37-5.33,29.92l-22.73,78.62q-3.94,13.69-3.94,16.7a6.34,6.34,0,0,0,1.5,4.29,4.24,4.24,0,0,0,3.14,1.74c1.39,0,3.16-.77,5.33-2.32q10-7.87,21.8-23.89l5.8,3.48q-17.4,24.83-32.93,35.49-10.9,7.18-19.49,7.19c-4.63,0-8.31-1.39-11-4.18s-4.06-6.49-4.06-11.13q0-9,6.26-30.85l21.8-75.14q3.95-13.9,3.94-21.8a8,8,0,0,0-2.43-6,8.29,8.29,0,0,0-5.92-2.32q-5.1,0-12.52,4.41-13.68,8.35-28.64,27.71t-31.66,49.29a185.5,185.5,0,0,0-14.61,34.79l-12.07,35.26H972l36.88-121.31q6-21.11,6-25.28a9.68,9.68,0,0,0-3.36-7.3,11.33,11.33,0,0,0-8-3.13,56.61,56.61,0,0,0-7.89.92l-7.19.93-1.16-6.72Z"/><path class="cls-6" d="M1191.07,147.81a128.71,128.71,0,0,0-1.16,15.31,40,40,0,0,0,40.36,40.13,62.59,62.59,0,0,0,25.87-5.57q12.4-5.56,36.77-24.35l3.94,5.33q-44.31,43.85-84.44,43.84-27.14,0-40.94-17.16t-13.8-37.81q0-27.84,17.16-56.95t43-45.35Q1243.73,49,1271.33,49q19.73,0,29.23,8.12t9.51,19q0,15.54-12.29,29.69-16.24,18.56-47.79,29.93Q1229.11,143.4,1191.07,147.81Zm1.39-9.28q27.61-3.24,45-10.9,23-10.22,34.45-24.47t11.48-27.26a16.78,16.78,0,0,0-5-12.53q-5-4.87-14-4.87-19,0-40.36,20.18T1192.46,138.53Z"/><path class="cls-7" d="M1397.49,9.92l-14.14,49.16h28.5l-3.14,11.44h-28l-31.2,106.39q-4.95,17.29-4.94,22.23a7.54,7.54,0,0,0,1.35,4.82,4.13,4.13,0,0,0,3.36,1.68q4.49,0,11.9-6.5,4.48-3.6,19.53-22.23l5.83,4.72q-16.6,24-31.42,34.11-10.11,6.73-20.43,6.74a17.69,17.69,0,0,1-12.9-4.94,17.09,17.09,0,0,1-5-12.79q0-9.66,5.61-29.63l30.3-104.6h-27.38l1.79-7.18q20-5.39,33.11-16.16t29.51-37.26Z"/><polygon class="cls-8" points="422.69 15.76 283.71 167.97 328.07 167.97 240.7 303.63 386.29 151.42 339.97 151.42 422.69 15.76"/><path class="cls-9" d="M331.71,49a110.7,110.7,0,0,0-69.63,196.79L272.24,230A92.12,92.12,0,0,1,331.71,67.55,90.25,90.25,0,0,1,356.39,71L370.2,55.85A109.45,109.45,0,0,0,331.71,49Z"/><path class="cls-10" d="M402.65,74.65l-9.84,16.11a92.13,92.13,0,0,1-80.7,158.94L297.51,265a108.4,108.4,0,0,0,34.2,5.44A110.75,110.75,0,0,0,402.65,74.65Z"/></svg>